# xmcd
#
# Track frame offsets: 
#        150
#        15759
#        30207
#        65587
#        95509
#        133290
#        148343
#        174801
#
# Disc length: 2774 seconds
#
# Revision: 0
# Processed by: cddbd v1.5.2PL0 Copyright (c) Steve Scherf et al.
# Submitted via: ExactAudioCopy v0.99pb4
#
DISCID=610ad408
DTITLE=Roy Buchanan - Live:Amazing Grace
DYEAR=2009
DGENRE=Rock
TTITLE0=Hot Cha
TTITLE1=Amazing Grace
TTITLE2=Delta Woman
TTITLE3=The Messiah Will Come Again
TTITLE4=Malaguena
TTITLE5=Good God Have Mercy
TTITLE6=I'm Evil
TTITLE7=Green Onions
EXTD=
EXTT0=
EXTT1=
EXTT2=
EXTT3=
EXTT4=
EXTT5=
EXTT6=
EXTT7=
PLAYORDER=
